# xmcd
#
# Track frame offsets:
#	182
#	10832
#	21090
#	32405
#	42842
#	54152
#	65897
#	76035
#	86837
#	98245
#	110792
#	120417
#	131897
#	143435
#	155707
#	167282
#	179437
#	188430
#	200040
#	212120
#	225315
#	236250
#	248257
#	256845
#	270670
#
# Disc length: 3847 seconds
#
# Revision: 0
# Processed by: cddbd v1.4PL0 Copyright (c) Steve Scherf et al.
# Submitted via: EasyCDDAExtractor 4.6.9.1
#
DISCID=3e0f0519
DTITLE=Connie Francis - Among My Souvenirs (the best of) CD1
DYEAR=1900
DGENRE=
TTITLE0=Who's Sorry Now
TTITLE1=Stupid Cupid
TTITLE2=My Happiness
TTITLE3=Lipstick On Your Collar
TTITLE4=I'm Sorry I Made You Cry
TTITLE5=Carolina Moon
TTITLE6=Fallin'
TTITLE7=You Always Hurt The One You Love
TTITLE8=Frankie
TTITLE9=You're Gonna Miss Me
TTITLE10=Plenty Good Lovin'
TTITLE11=Among My Souvenirs
TTITLE12=I'll Get By
TTITLE13=Everybody's Somebody's Fool
TTITLE14=My Heart Has A Mind Of It's Own
TTITLE15=Where The Boys Are
TTITLE16=Many Tears Ago
TTITLE17=Baby Roo
TTITLE18=Valentino
TTITLE19=Together
TTITLE20=V-A-C-A-T-I-O-N
TTITLE21=Breaking In A Brand New Broken Heart
TTITLE22=Robot Man
TTITLE23=Don't Break The Heart That Loves You
TTITLE24=Mama
EXTD=
EXTT0=
EXTT1=
EXTT2=
EXTT3=
EXTT4=
EXTT5=
EXTT6=
EXTT7=
EXTT8=
EXTT9=
EXTT10=
EXTT11=
EXTT12=
EXTT13=
EXTT14=
EXTT15=
EXTT16=
EXTT17=
EXTT18=
EXTT19=
EXTT20=
EXTT21=
EXTT22=
EXTT23=
EXTT24=
PLAYORDER=
